#!OML:ASF X:\für Bonn\!DataBase\2005_08_10_Bjorn_Final\c3d\bjorn.ASF
:FULLY-SPECIFIED
:DEGREES
121
root 1.35292 15.5648 3.4201 -178.839 -8.43773 -182.433
lowerback 15.4849 -0.317403 4.07011
upperback 10.8772 -1.77993 -0.460419
thorax 2.82218 -1.41743 -2.58495
lowerneck -20.3051 -2.70764 1.2915
upperneck -1.8634 -4.68986 -0.392349
head 2.88982 -2.69873 -0.786189
rclavicle 7.95139e-016 6.36111e-015
rhumerus 80.3825 -1.59393 -67.4467
rradius 9.65609
rwrist 40.6881
rhand -12.5951 10.8341
rfingers 7.12502
rthumb 13.4835 -18.7094
lclavicle 7.95139e-016 6.36111e-015
lhumerus 81.7896 -8.10297 63.4723
lradius 10.5852
lwrist -42.0006
lhand -18.1931 -5.00184
lfingers 7.12502
lthumb 8.084 24.8235
rfemur -45.1642 -7.94972 14.5541
rtibia 90.2418
rfoot -34.4937 7.98799
rtoes -32.2622
lfemur -47.882 3.6861 -22.6924
ltibia 91.2302
lfoot -25.3746 -3.31487
ltoes -22.1264
122
root 1.3581 15.7994 3.37883 -178.676 -8.27756 -182.331
lowerback 14.6506 -0.259103 4.00386
upperback 10.7198 -1.6602 -0.394254
thorax 3.09718 -1.32572 -2.50996
lowerneck -20.4014 -2.75515 1.22071
upperneck -1.45152 -4.69238 -0.520802
head 3.0531 -2.6858 -0.827154
rclavicle -2.5842e-015 6.75868e-015
rhumerus 80.1817 -1.45342 -67.2375
rradius 9.63785
rwrist 39.9964
rhand -12.3587 10.8974
rfingers 7.12502
rthumb 13.7113 -18.6309
lclavicle -2.5842e-015 6.75868e-015
lhumerus 81.509 -8.13233 64.0367
lradius 10.6016
lwrist -42.292
lhand -17.6351 -5.08604
lfingers 7.12502
lthumb 8.62249 24.7179
rfemur -43.6265 -7.61884 14.8536
rtibia 87.4561
rfoot -34.2271 7.78554
rtoes -31.3211
lfemur -46.395 3.67258 -22.421
ltibia 88.6572
lfoot -25.0242 -3.51899
ltoes -21.5733
123
root 1.36264 16.0279 3.33741 -178.489 -8.13006 -182.247
lowerback 13.7851 -0.205793 3.94586
upperback 10.5406 -1.54045 -0.346747
thorax 3.36755 -1.23099 -2.45698
lowerneck -20.4539 -2.8239 1.08092
upperneck -1.0447 -4.70761 -0.566988
head 3.21066 -2.67513 -0.828342
rclavicle 2.56432e-014 -1.86858e-014
rhumerus 79.835 -1.28136 -67.0525
rradius 9.77249
rwrist 39.3157
rhand -12.173 10.977
rfingers 7.12502
rthumb 13.8902 -18.5391
lclavicle 2.56432e-014 -1.86858e-014
lhumerus 81.1697 -8.20516 64.5587
lradius 10.6466
lwrist -42.4851
lhand -17.1769 -5.1695
lfingers 7.12502
lthumb 9.06462 24.6157
rfemur -42.1198 -7.37163 15.1173
rtibia 84.6438
rfoot -33.8951 7.64073
rtoes -30.2901
lfemur -44.9386 3.63589 -22.1836
ltibia 86.0668
lfoot -24.6806 -3.67973
ltoes -21.0573
124
root 1.36837 16.2498 3.2943 -178.315 -7.96181 -182.147
lowerback 12.9187 -0.146334 3.89069
upperback 10.3573 -1.41259 -0.314335
thorax 3.63784 -1.1321 -2.41972
lowerneck -20.5962 -2.87961 1.01969
upperneck -0.557785 -4.72127 -0.624696
head 3.41281 -2.66294 -0.85136
rclavicle -2.78299e-015 -3.57812e-015
rhumerus 79.3741 -1.08618 -66.9181
rradius 10.0363
rwrist 38.6767
rhand -12.0169 10.9843
rfingers 7.12502
rthumb 14.0408 -18.5214
lclavicle -2.78299e-015 -3.57812e-015
lhumerus 80.8167 -8.30451 65.0316
lradius 10.6849
lwrist -42.6076
lhand -16.7695 -5.16179
lfingers 7.12502
lthumb 9.45775 24.606
rfemur -40.6185 -7.17289 15.4031
rtibia 81.832
rfoot -33.5736 7.41101
rtoes -29.5933
lfemur -43.4607 3.63066 -21.9259
ltibia 83.4506
lfoot -24.3219 -3.87781
ltoes -20.4215
125
root 1.37483 16.4695 3.25179 -178.135 -7.79351 -182.029
lowerback 12.0895 -0.0944152 3.84813
upperback 10.1457 -1.28911 -0.262606
thorax 3.86094 -1.03595 -2.36472
lowerneck -21.038 -2.93285 0.915057
upperneck 0.505086 -4.71827 -0.764682
head 3.37604 -2.65001 -0.804861
rclavicle 1.59028e-014 1.35174e-014
rhumerus 78.8843 -0.846428 -66.7073
rradius 10.2769
rwrist 38.1112
rhand -12.0329 11.0295
rfingers 7.12502
rthumb 14.0253 -18.4773
lclavicle 1.59028e-014 1.35174e-014
lhumerus 80.4369 -8.42876 65.3008
lradius 10.7295
lwrist -42.3463
lhand -16.4196 -5.06043
lfingers 7.12502
lthumb 9.79535 24.6917
rfemur -39.1161 -7.04004 15.7141
rtibia 78.9949
rfoot -33.2269 7.07274
rtoes -29.1252
lfemur -41.9672 3.66118 -21.6508
ltibia 80.7869
lfoot -24.004 -4.1288
ltoes -19.7507
126
root 1.38057 16.6876 3.21068 -177.932 -7.60595 -181.928
lowerback 11.3109 -0.0451085 3.82223
upperback 9.8785 -1.15543 -0.240481
thorax 3.99958 -0.931934 -2.34604
lowerneck -21.1367 -2.9964 0.837364
upperneck 1.05695 -4.73042 -0.839117
head 3.56201 -2.63803 -0.825805
rclavicle -8.74653e-015 3.97569e-016
rhumerus 78.3012 -0.591317 -66.5643
rradius 10.4945
rwrist 37.7169
rhand -12.2554 11.0552
rfingers 7.12502
rthumb 13.8109 -18.4663
lclavicle -8.74653e-015 3.97569e-016
lhumerus 79.9704 -8.6002 65.5411
lradius 10.826
lwrist -41.9904
lhand -16.0623 -4.95463
lfingers 7.12502
lthumb 10.1401 24.781
rfemur -37.6698 -6.94217 15.9919
rtibia 76.1613
rfoot -32.8571 6.7005
rtoes -28.915
lfemur -40.4691 3.69696 -21.4081
ltibia 78.0675
lfoot -23.7187 -4.39051
ltoes -18.8389
